# xmcd CD database file
#
# Track frame offsets:
#	150
#	10723
#	25154
#	39526
#	53182
#	74179
#	85325
#	96371
#	104688
#	118487
#	134349
#	150384
#	158780
#	168767
#	183547
#	193505
#	204327
#	216449
#	229505
#	241528
#	252359
#
# Disc length: 3492 seconds
#
# Revision: 0
# Processed by: cddbd v1.5.2PL0 Copyright (c) Steve Scherf et al.
# Submitted via: CDex 1.70beta1
#
DISCID=230da215
DTITLE=George Melly and The Mick Mulligan Jazz Band - Nothing Personal
DYEAR=1900
DGENRE=Jazz
TTITLE0=Sporting Life
TTITLE1=Loveless Love
TTITLE2=Ma Rainey's Black Bottom
TTITLE3=Gulf Coast Blues
TTITLE4=St Louis Blues
TTITLE5=Michigan Water Blues
TTITLE6=Aunt Hagar's Blues
TTITLE7=Spider Crawl
TTITLE8=Sent for you Yesterday
TTITLE9=Farewell To Storyville
TTITLE10=Roll'Em Pete
TTITLE11=Hound Dog
TTITLE12=This Train
TTITLE13=Kingdom Coming
TTITLE14=I'm A Ding Dong Daddy
TTITLE15=Railroadin' Man
TTITLE16=Waiting For A Train
TTITLE17=My Canary Has Circles Under His Eyes
TTITLE18=Heebie Jeebies
TTITLE19=Black Bottom
TTITLE20=Magnolia
EXTD=
EXTT0=
EXTT1=
EXTT2=
EXTT3=
EXTT4=
EXTT5=
EXTT6=
EXTT7=
EXTT8=
EXTT9=
EXTT10=
EXTT11=
EXTT12=
EXTT13=
EXTT14=
EXTT15=
EXTT16=
EXTT17=
EXTT18=
EXTT19=
EXTT20=
PLAYORDER=
